# xmcd CD database file
#
# Track frame offsets:
#	150
#	26752
#	52180
#	87378
#	116681
#	157608
#	184997
#	226044
#	245796
#	272923
#
# Disc length: 4145 seconds
#
# Revision: 0
# Processed by: cddbd v1.5.2PL0 Copyright (c) Steve Scherf et al.
# Submitted via: CDex 1.51
#
DISCID=85102f0a
DTITLE=Michael Garrick Jazz Orchestra - Peter Pan
DYEAR=2003
DGENRE=Jazz
TTITLE0=Peter Pan
TTITLE1=Mrs. Darling
TTITLE2=Mr. Darling
TTITLE3=Wendy
TTITLE4=The Lost Boys
TTITLE5=Tink
TTITLE6=Hook
TTITLE7=The Trees
TTITLE8=Crocodile
TTITLE9=Neverland
EXTD=YEAR: 2003
EXTT0=
EXTT1=
EXTT2=
EXTT3=
EXTT4=
EXTT5=
EXTT6=
EXTT7=
EXTT8=
EXTT9=
PLAYORDER=
